<?xml version="1.0" standalone="no"?>
<!DOCTYPE svg PUBLIC "-//W3C//DTD SVG 20010904//EN"
 "http://www.w3.org/TR/2001/REC-SVG-20010904/DTD/svg10.dtd">
<svg version="1.0" xmlns="http://www.w3.org/2000/svg"
 width="307.000000pt" height="320.000000pt" viewBox="0 0 307.000000 320.000000"
 preserveAspectRatio="xMidYMid meet">

<g transform="translate(0.000000,320.000000) scale(0.100000,-0.100000)"
fill="#000000" stroke="none">
<path d="M732 2797 c-47 -18 -97 -60 -116 -102 -10 -19 -37 -142 -62 -273 -71
-379 -60 -342 -101 -342 -61 0 -91 -27 -135 -120 -23 -47 -43 -103 -45 -125
-8 -76 55 -135 145 -135 l39 0 -29 -56 c-36 -73 -38 -147 -4 -219 28 -61 91
-120 145 -136 l41 -12 0 -52 c0 -63 23 -143 52 -180 30 -38 356 -323 393 -343
45 -25 316 -30 370 -8 44 19 26 29 185 -110 63 -55 134 -113 158 -128 l42 -26
0 -66 c0 -56 3 -68 25 -89 23 -24 30 -25 140 -25 115 0 117 0 146 29 26 26 29
36 29 93 0 61 1 64 34 83 19 11 111 87 205 169 196 171 218 203 229 327 7 69
8 73 36 80 140 38 216 222 147 357 -18 36 -92 112 -109 112 -4 0 -13 4 -20 9
-11 7 -9 18 12 60 43 83 58 171 54 301 -3 99 -7 123 -29 170 -53 110 -155 195
-298 246 -42 15 -78 29 -80 31 -3 2 7 16 21 31 33 35 40 57 28 87 -21 56 -169
105 -344 114 l-110 6 -16 65 c-20 80 -30 99 -74 138 -50 44 -91 52 -261 52
-165 0 -193 -8 -269 -69 -21 -17 -47 -31 -56 -31 -10 0 -39 17 -65 39 -25 21
-63 43 -84 50 -50 15 -326 13 -369 -2z m373 -97 c17 -11 46 -32 65 -46 30 -22
43 -25 93 -22 47 4 63 10 90 35 53 50 65 53 236 53 156 0 160 -1 190 -25 29
-25 43 -55 56 -122 6 -29 4 -32 -32 -43 -88 -28 -179 -85 -250 -157 l-72 -73
-431 0 c-236 0 -430 3 -430 7 0 31 65 333 76 355 26 50 54 57 224 58 139 0
158 -2 185 -20z m1070 -254 c33 -8 72 -19 87 -25 l27 -10 -35 -38 c-58 -63
-60 -112 -4 -126 236 -61 356 -148 396 -286 21 -71 14 -200 -16 -296 l-23 -70
-24 52 c-14 28 -39 69 -57 89 l-33 38 -65 -12 c-177 -33 -366 3 -643 122 -166
71 -344 -5 -404 -174 -13 -36 -25 -72 -28 -80 -3 -10 -9 -5 -17 15 -39 91 -52
252 -28 336 21 70 77 137 150 177 47 26 71 47 98 88 68 102 176 177 301 209
69 18 227 13 318 -9z m-842 -273 c-22 -21 -48 -50 -58 -65 l-17 -28 -340 0
-340 0 6 38 c4 20 9 49 12 65 l6 27 385 0 386 0 -40 -37z m-117 -210 c-3 -21
-6 -68 -6 -106 l0 -67 -422 2 -423 3 -3 24 c-4 25 40 134 66 164 14 16 46 17
405 17 l390 0 -7 -37z m609 -188 c207 -89 426 -127 592 -102 l52 8 28 -53 c25
-49 28 -64 31 -191 4 -126 6 -138 25 -152 18 -12 24 -13 42 -1 16 11 21 27 25
85 l5 73 35 -24 c54 -36 80 -83 80 -140 0 -93 -54 -158 -145 -174 -61 -10 -65
-17 -65 -112 0 -126 -10 -141 -201 -307 -88 -77 -175 -148 -192 -157 -26 -15
-57 -18 -162 -18 -114 0 -134 3 -164 21 -19 11 -106 84 -194 161 -186 165
-196 181 -197 304 0 91 -5 98 -63 109 -45 9 -92 39 -121 78 -16 22 -21 43 -21
92 0 56 4 68 31 101 17 21 45 44 62 51 l32 13 0 -75 c0 -64 3 -76 20 -85 14
-7 26 -7 39 -1 16 9 19 27 23 158 6 183 29 265 93 328 78 79 147 81 310 10z
m-585 -117 c7 -24 23 -64 36 -90 l24 -48 -38 -19 c-41 -21 -96 -78 -114 -117
-10 -22 -17 -24 -78 -24 -127 0 -199 -66 -200 -182 0 -111 18 -121 214 -117
130 3 146 1 199 -21 l57 -24 0 -65 c0 -49 7 -80 25 -120 14 -30 23 -57 19 -60
-11 -11 -220 -13 -260 -2 -52 14 -389 307 -410 357 -8 20 -14 68 -14 118 0 93
-11 116 -56 116 -39 0 -88 25 -117 59 -61 73 -55 167 14 234 57 54 69 50 69
-24 0 -69 12 -99 40 -99 36 0 50 27 50 101 l0 69 263 0 264 0 13 -42z m-114
-415 c3 -16 10 -41 15 -57 5 -16 9 -31 9 -32 0 -2 -45 -4 -100 -4 l-100 0 0
25 c0 31 24 81 42 88 7 3 39 6 70 6 55 1 58 0 64 -26z m934 -863 l0 -40 -85 0
-85 0 0 40 0 40 85 0 85 0 0 -40z"/>
<path d="M1562 1518 c-19 -19 -14 -45 10 -62 17 -12 49 -16 129 -16 90 0 111
3 130 19 21 16 22 22 11 45 l-12 26 -128 0 c-86 0 -132 -4 -140 -12z"/>
<path d="M2122 1518 c-18 -18 -14 -56 7 -68 25 -13 211 -13 245 0 18 6 26 17
26 33 0 42 -16 47 -145 47 -81 0 -125 -4 -133 -12z"/>
<path d="M1606 1344 c-9 -8 -16 -22 -16 -29 0 -19 39 -45 67 -45 17 0 22 -7
25 -31 6 -64 70 -64 76 0 3 24 8 31 25 31 28 0 67 26 67 45 0 35 -29 45 -130
45 -76 0 -102 -4 -114 -16z"/>
<path d="M2122 1348 c-31 -31 -3 -78 47 -78 16 0 21 -6 21 -29 0 -63 74 -69
86 -6 5 28 11 35 29 35 44 0 71 50 43 78 -8 8 -48 12 -113 12 -65 0 -105 -4
-113 -12z"/>
<path d="M1902 1088 c-16 -16 -15 -43 2 -57 23 -19 136 -10 150 12 8 12 8 22
0 35 -14 21 -132 30 -152 10z"/>
<path d="M1822 878 c-18 -18 -14 -56 7 -68 11 -5 77 -10 148 -10 100 0 133 3
151 16 26 18 28 37 6 58 -13 13 -42 16 -158 16 -97 0 -146 -4 -154 -12z"/>
<path d="M1906 704 c-22 -21 -20 -40 6 -58 25 -18 100 -21 129 -6 21 12 25 50
7 68 -18 18 -123 15 -142 -4z"/>
<path d="M893 1610 c-15 -6 -23 -18 -23 -33 0 -31 18 -47 52 -47 24 0 28 -4
28 -29 0 -41 35 -67 65 -47 11 7 21 27 23 45 3 26 7 31 31 31 15 0 32 5 39 12
18 18 14 56 -7 68 -24 12 -177 12 -208 0z"/>
</g>
</svg>
