<?xml version="1.0" standalone="no"?>
<!DOCTYPE svg PUBLIC "-//W3C//DTD SVG 20010904//EN"
 "http://www.w3.org/TR/2001/REC-SVG-20010904/DTD/svg10.dtd">
<svg version="1.0" xmlns="http://www.w3.org/2000/svg"
 width="191.000000pt" height="220.000000pt" viewBox="0 0 191.000000 220.000000"
 preserveAspectRatio="xMidYMid meet">

<g transform="translate(0.000000,220.000000) scale(0.100000,-0.100000)"
fill="#000000" stroke="none">
<path d="M655 2156 c-17 -7 -44 -28 -60 -47 -26 -29 -37 -34 -77 -35 -99 -3
-178 -78 -186 -178 -4 -51 -7 -57 -43 -81 -85 -55 -125 -148 -116 -262 5 -64
3 -69 -24 -101 -43 -49 -76 -120 -89 -192 -12 -67 -9 -114 17 -217 14 -58 14
-65 -5 -115 -31 -84 -36 -131 -18 -191 9 -30 25 -66 37 -81 18 -22 22 -43 24
-109 3 -166 90 -271 233 -284 56 -5 60 -7 71 -39 18 -51 99 -134 156 -160 67
-32 200 -34 276 -4 122 46 183 118 219 258 l11 42 219 0 220 0 0 70 0 70 -221
2 -221 3 -19 74 c-11 41 -25 84 -32 95 -10 15 -11 30 -4 63 l10 43 244 0 243
0 0 70 0 70 -239 0 -239 0 -7 33 c-4 17 -18 59 -31 91 -21 52 -22 64 -12 98
l11 38 259 0 258 0 0 70 0 70 -240 0 -240 0 0 25 c0 13 -11 50 -25 81 l-25 56
21 41 c25 49 28 117 6 169 -15 35 -14 41 4 92 25 72 25 167 0 223 -28 61 -90
117 -155 142 -65 24 -164 28 -211 7z m170 -125 c94 -43 119 -123 71 -226 -31
-69 -32 -85 -6 -127 24 -39 26 -87 5 -114 -15 -19 -16 -18 -39 9 -14 15 -28
27 -31 27 -16 0 1 -55 45 -151 64 -137 65 -166 8 -195 -37 -19 -83 -10 -103
20 -16 24 -65 246 -65 294 0 42 35 82 71 82 34 0 37 12 9 40 -24 24 -77 26
-109 4 -28 -20 -51 -72 -51 -114 0 -26 -3 -30 -19 -25 -11 3 -36 -1 -55 -9
-39 -16 -49 -46 -16 -46 29 0 77 -27 89 -49 6 -10 17 -51 25 -91 17 -81 52
-149 91 -174 14 -9 48 -20 75 -23 48 -6 61 -15 40 -28 -15 -9 -12 -58 6 -83
46 -66 65 -188 43 -277 -11 -44 -11 -44 -38 -31 -34 18 -95 83 -114 121 -22
44 -23 77 -4 106 17 25 36 129 24 129 -3 0 -20 -15 -39 -34 -41 -41 -78 -53
-116 -37 -38 16 -58 54 -73 132 -12 66 -9 86 26 172 13 30 -11 18 -74 -38 -67
-60 -68 -60 -124 -44 -43 12 -77 65 -77 123 0 62 5 66 73 60 41 -3 70 -1 86 8
37 20 38 38 2 38 -54 0 -133 22 -153 42 -17 17 -20 30 -16 75 5 61 31 103 72
118 25 9 32 6 65 -30 63 -68 101 -95 132 -95 37 0 37 15 -1 46 -40 34 -110
176 -110 224 0 55 31 90 80 90 43 0 51 -13 71 -117 20 -106 34 -112 136 -53
58 33 86 67 86 106 0 40 -11 40 -51 2 -57 -55 -77 -63 -102 -38 -15 15 -20 33
-20 71 0 115 69 159 175 110z m-605 -761 c15 -37 71 -87 118 -107 19 -8 56
-13 81 -11 43 3 45 2 55 -30 24 -84 -59 -116 -176 -67 -30 12 -21 -30 12 -58
35 -30 123 -45 179 -31 25 7 44 6 61 -3 14 -7 45 -21 70 -31 37 -15 48 -26 59
-58 53 -150 45 -139 151 -209 111 -73 116 -81 127 -210 8 -100 -15 -176 -70
-231 -47 -47 -94 -64 -175 -64 -89 0 -141 33 -181 115 l-19 39 30 44 c16 24
27 46 24 49 -3 3 -32 -2 -64 -11 -79 -22 -144 -20 -192 4 -45 23 -65 55 -75
120 l-7 46 60 -1 c46 0 67 5 88 21 43 32 39 41 -18 48 -112 15 -192 87 -190
171 0 65 9 72 46 37 49 -46 118 -89 210 -132 56 -25 86 -45 91 -59 18 -56 -31
-123 -117 -161 -27 -11 -48 -26 -48 -32 0 -14 102 -1 155 20 63 24 116 21 164
-11 44 -29 101 -108 101 -139 0 -10 7 -18 16 -18 27 0 10 92 -31 178 -20 40
-39 95 -42 122 -3 28 -10 50 -15 50 -5 0 -18 -21 -29 -46 -16 -36 -25 -45 -42
-42 -19 3 -23 11 -27 62 -4 46 -11 63 -31 80 l-26 22 28 32 c34 38 40 100 12
123 -14 12 -17 12 -21 -1 -3 -8 -18 -27 -33 -42 -39 -40 -117 -40 -180 0 -91
58 -136 131 -164 268 -13 62 -14 87 -5 131 6 29 15 53 19 53 5 0 14 -14 21
-30z"/>
<path d="M1154 1895 c-4 -8 -14 -15 -23 -15 -36 0 -41 -21 -41 -155 0 -89 4
-135 12 -143 17 -17 379 -17 396 0 15 15 17 251 2 279 -9 16 -22 19 -94 19
-65 0 -85 3 -90 15 -4 12 -23 15 -81 15 -58 0 -77 -3 -81 -15z m224 -72 c-42
-2 -114 -2 -160 0 -46 1 -11 3 77 3 88 0 125 -2 83 -3z"/>
<path d="M1520 1720 l0 -70 55 0 55 0 0 -85 0 -85 65 0 65 0 0 155 0 155 -120
0 -120 0 0 -70z"/>
<path d="M1580 1260 l0 -160 140 0 141 0 -3 98 -3 97 -57 3 -57 3 -3 57 -3 57
-77 3 -78 3 0 -161z"/>
<path d="M1750 1365 l0 -55 55 0 c30 0 55 2 55 5 0 10 -92 105 -101 105 -5 0
-9 -25 -9 -55z"/>
<path d="M1580 850 l0 -160 140 0 140 0 0 95 0 95 -60 0 -59 0 -3 63 -3 62
-77 3 -78 3 0 -161z"/>
<path d="M1750 950 l0 -60 56 0 c31 0 54 4 52 9 -4 11 -97 111 -103 111 -3 0
-5 -27 -5 -60z"/>
<path d="M1580 430 l0 -160 140 0 140 0 0 95 0 95 -60 0 -59 0 -3 63 -3 62
-77 3 -78 3 0 -161z"/>
<path d="M1750 536 l0 -54 50 -4 c28 -1 50 1 50 5 0 11 -83 107 -92 107 -5 0
-8 -24 -8 -54z"/>
</g>
</svg>
