<?xml version="1.0" standalone="no"?>
<!DOCTYPE svg PUBLIC "-//W3C//DTD SVG 20010904//EN"
 "http://www.w3.org/TR/2001/REC-SVG-20010904/DTD/svg10.dtd">
<svg version="1.0" xmlns="http://www.w3.org/2000/svg"
 width="512.000000pt" height="512.000000pt" viewBox="0 0 512.000000 512.000000"
 preserveAspectRatio="xMidYMid meet">

<g transform="translate(0.000000,512.000000) scale(0.100000,-0.100000)"
fill="#000000" stroke="none">
<path d="M2045 4671 c-43 -19 -90 -68 -107 -110 -6 -14 -14 -74 -19 -133 -10
-127 -30 -210 -70 -290 -42 -83 -91 -133 -167 -170 -58 -29 -79 -33 -160 -36
-79 -3 -106 0 -177 22 -46 15 -117 42 -157 61 -88 42 -141 45 -214 11 -35 -16
-61 -38 -81 -67 -50 -73 -435 -722 -450 -759 -21 -49 -13 -136 17 -184 15 -26
56 -59 123 -103 188 -121 262 -224 262 -358 -1 -57 -6 -80 -29 -124 -40 -77
-107 -144 -216 -216 -52 -35 -105 -74 -117 -87 -50 -53 -67 -145 -39 -212 25
-60 453 -770 477 -792 71 -64 166 -72 269 -23 234 112 410 117 548 14 111 -82
181 -256 182 -450 0 -102 41 -175 121 -216 36 -18 63 -19 518 -19 273 0 490 4
504 9 40 16 99 73 118 116 47 104 0 227 -106 276 -36 17 -71 19 -391 19 l-350
0 -26 104 c-79 317 -277 540 -558 628 -67 20 -94 23 -245 23 -164 -1 -242 -12
-336 -50 -12 -4 -41 36 -127 180 l-112 187 76 70 c198 185 291 414 263 646
-22 179 -101 328 -255 478 l-83 81 108 179 c120 200 107 190 215 161 162 -45
339 -46 494 -1 127 36 221 94 322 194 123 123 193 252 243 448 l23 87 225 3
225 2 27 -107 c67 -264 214 -462 427 -572 179 -94 409 -114 620 -56 123 34
101 49 223 -156 l107 -181 -83 -82 c-131 -128 -202 -247 -244 -411 -23 -91
-13 -268 21 -364 48 -138 133 -263 248 -365 l61 -54 -112 -186 c-62 -102 -115
-186 -119 -186 -4 0 -23 5 -42 10 -81 25 -203 40 -320 40 l-125 0 -138 194
-137 194 52 74 c59 81 100 165 130 266 26 88 35 279 18 376 -75 425 -456 728
-885 703 -128 -8 -208 -28 -321 -82 -179 -86 -309 -215 -394 -390 -71 -146
-84 -203 -84 -375 -1 -123 3 -158 23 -227 87 -308 338 -544 643 -607 109 -23
273 -21 377 4 47 11 88 17 92 13 4 -5 87 -120 184 -258 208 -292 208 -292 260
-316 49 -23 98 -24 195 -3 136 29 281 7 443 -66 113 -51 216 -36 280 39 13 16
125 198 248 403 217 363 223 375 227 435 3 50 0 71 -18 108 -23 47 -50 70
-156 135 -131 79 -225 202 -240 312 -18 134 96 285 309 410 62 36 99 94 105
163 2 30 -1 69 -7 87 -20 58 -445 761 -482 799 -68 68 -168 75 -276 20 -32
-16 -97 -41 -145 -56 -117 -36 -243 -34 -330 7 -145 68 -231 227 -244 458 -7
117 -17 152 -57 197 -65 74 -55 73 -587 73 -439 0 -478 -2 -515 -19z m630
-1703 c199 -50 343 -275 306 -476 -33 -181 -172 -320 -355 -353 -223 -41 -453
130 -486 361 -18 128 23 253 117 351 111 116 258 158 418 117z"/>
</g>
</svg>
