<?xml version="1.0" standalone="no"?>
<!DOCTYPE svg PUBLIC "-//W3C//DTD SVG 20010904//EN"
 "http://www.w3.org/TR/2001/REC-SVG-20010904/DTD/svg10.dtd">
<svg version="1.0" xmlns="http://www.w3.org/2000/svg"
 width="745.000000pt" height="684.000000pt" viewBox="0 0 745.000000 684.000000"
 preserveAspectRatio="xMidYMid meet">

<g transform="translate(0.000000,684.000000) scale(0.100000,-0.100000)"
fill="#000000" stroke="none">
<path d="M445 6583 c-87 -19 -158 -72 -198 -148 l-22 -40 -3 -1701 -2 -1702
33 -63 c24 -48 45 -72 80 -96 65 -44 104 -53 221 -53 113 0 107 13 52 -120
-82 -200 -119 -383 -120 -605 -1 -217 33 -379 113 -551 70 -148 132 -226 365
-460 279 -279 343 -337 436 -398 208 -138 486 -207 763 -190 l107 7 0 -40 c0
-53 51 -154 95 -188 19 -14 54 -35 77 -45 42 -19 92 -20 2344 -20 l2301 0 62
31 c65 33 98 67 130 139 20 45 21 60 21 1456 0 1565 5 1460 -67 1543 -19 23
-54 52 -77 64 l-41 22 -930 5 -930 5 -5 1205 c-4 1084 -7 1209 -21 1241 -26
56 -79 110 -134 135 l-50 24 -1184 0 -1184 0 -396 262 c-218 144 -412 267
-431 274 -27 10 -185 13 -710 12 -371 0 -684 -2 -695 -5z m1772 -403 l410
-270 1187 0 c1304 0 1231 3 1277 -61 l24 -34 0 -1190 0 -1190 -194 -3 -194 -2
-396 262 c-218 144 -413 268 -435 275 -31 11 -168 13 -730 11 -640 -3 -694 -4
-731 -21 -50 -23 -110 -80 -138 -132 -21 -39 -22 -51 -25 -472 l-3 -433 -377
-1 c-207 0 -385 -2 -395 -4 -10 -2 -14 1 -11 7 4 6 -89 106 -206 223 l-213
212 -59 -63 c-74 -78 -157 -186 -227 -292 l-54 -82 -139 0 c-155 0 -180 7
-214 64 -18 30 -19 84 -22 1656 -2 894 0 1649 3 1678 7 55 40 106 79 122 12 5
325 9 697 9 l677 1 409 -270z m2049 -2610 l409 -270 1188 0 c1305 0 1232 3
1278 -61 l24 -34 0 -1400 c0 -1354 -1 -1401 -19 -1431 -42 -70 146 -64 -2107
-64 -1117 0 -2033 1 -2035 2 -1 2 39 214 88 471 49 258 87 471 83 475 -3 4
-178 11 -388 17 l-382 10 -3 1185 c-1 652 0 1209 4 1238 6 55 38 106 78 122
12 5 325 9 697 9 l677 1 408 -270z m-1996 -1536 l0 -747 -146 6 -147 5 147
-147 148 -148 -97 -32 c-361 -120 -718 -115 -1019 15 -84 36 -88 39 -115 93
-43 84 -89 231 -106 334 -18 108 -20 323 -4 434 41 295 172 600 372 866 l51
67 458 0 458 0 0 -746z m570 -1589 c74 -74 128 -135 120 -136 -8 0 -115 -1
-237 -1 -192 0 -226 3 -251 17 -38 23 -58 58 -67 115 l-7 46 101 28 c55 15
122 36 148 46 27 11 50 19 53 20 3 0 66 -61 140 -135z"/>
<path d="M2184 5065 c-219 -48 -355 -224 -355 -460 0 -226 117 -389 325 -452
76 -23 216 -20 295 7 133 45 239 151 276 278 6 22 6 22 -117 22 l-124 0 -18
-30 c-44 -76 -168 -111 -261 -76 -54 21 -117 89 -133 144 -15 50 -15 163 0
213 15 52 73 117 122 140 89 40 220 8 268 -65 l23 -36 123 0 c141 0 136 -6 85
95 -58 115 -182 203 -320 224 -88 13 -111 13 -189 -4z"/>
<path d="M3181 5064 c-133 -35 -246 -129 -302 -249 -111 -235 -19 -517 203
-628 288 -145 624 12 689 320 15 74 6 202 -19 269 -83 223 -337 351 -571 288z
m247 -218 c115 -59 158 -257 85 -388 -40 -71 -96 -108 -173 -115 -78 -7 -118
1 -173 38 -71 46 -102 118 -101 229 1 152 67 240 193 259 55 8 128 -2 169 -23z"/>
<path d="M510 4605 l0 -467 238 5 c266 5 299 11 400 77 142 91 214 259 192
447 -19 161 -98 276 -240 348 -76 39 -131 47 -362 52 l-228 5 0 -467z m477
237 c83 -43 127 -127 126 -241 -1 -83 -18 -133 -63 -184 -52 -58 -105 -77
-222 -77 l-88 0 0 266 0 266 103 -4 c79 -3 111 -9 144 -26z"/>
<path d="M1470 4605 l0 -465 115 0 115 0 0 465 0 465 -115 0 -115 0 0 -465z"/>
<path d="M3905 4605 l0 -465 112 0 113 0 2 270 3 270 101 -267 102 -268 93 0
93 0 101 268 100 268 3 -271 2 -270 115 0 115 0 0 465 0 465 -134 0 -134 0
-30 -72 c-17 -40 -74 -183 -128 -317 -68 -169 -101 -240 -107 -230 -4 8 -63
149 -131 314 l-122 300 -135 3 -134 3 0 -466z"/>
<path d="M3280 1935 l0 -465 110 0 110 0 2 281 3 282 188 -282 187 -281 115 0
115 0 0 465 0 465 -115 0 -115 0 0 -287 0 -288 -190 288 -189 287 -111 0 -110
0 0 -465z"/>
<path d="M4270 1935 l0 -465 114 0 113 0 0 465 0 465 -113 0 -114 0 0 -465z"/>
<path d="M4660 1935 l0 -465 113 0 114 0 1 168 c0 92 1 175 1 185 1 15 15 17
141 17 l140 0 0 90 0 90 -140 0 c-86 0 -140 4 -141 10 0 6 -1 39 -1 75 0 36 1
76 1 90 l1 25 185 0 185 0 0 90 0 90 -300 0 -300 0 0 -465z"/>
<path d="M5330 2310 l0 -89 123 -3 122 -3 3 -372 2 -373 110 0 110 0 2 373 3
372 123 3 122 3 0 89 0 90 -360 0 -360 0 0 -90z"/>
<path d="M6160 1935 l0 -465 115 0 115 0 0 465 0 465 -115 0 -115 0 0 -465z"/>
</g>
</svg>
