<?xml version="1.0" standalone="no"?>
<!DOCTYPE svg PUBLIC "-//W3C//DTD SVG 20010904//EN"
 "http://www.w3.org/TR/2001/REC-SVG-20010904/DTD/svg10.dtd">
<svg version="1.0" xmlns="http://www.w3.org/2000/svg"
 width="320.000000pt" height="320.000000pt" viewBox="0 0 320.000000 320.000000"
 preserveAspectRatio="xMidYMid meet">

<g transform="translate(0.000000,320.000000) scale(0.100000,-0.100000)"
fill="#000000" stroke="none">
<path d="M2055 2974 c-22 -8 -49 -18 -60 -21 -11 -4 -29 -12 -40 -19 -11 -7
-53 -27 -93 -43 -59 -24 -87 -44 -150 -108 -105 -106 -136 -172 -136 -298 -1
-143 42 -231 118 -239 13 -2 36 -13 51 -25 18 -13 42 -21 67 -21 48 0 78 -15
78 -38 1 -24 30 -57 68 -76 17 -9 32 -20 32 -25 0 -4 -34 -36 -76 -70 -110
-91 -385 -353 -485 -462 -188 -207 -300 -348 -459 -579 -135 -198 -113 -195
-198 -28 -82 163 -142 246 -198 273 -34 16 -46 17 -93 7 -63 -13 -142 -59
-209 -120 l-47 -42 30 -23 c112 -85 171 -160 253 -324 51 -101 159 -354 182
-425 6 -21 15 -40 20 -43 4 -3 75 44 156 104 164 120 142 93 294 361 219 386
521 795 865 1171 150 164 183 186 288 196 l65 6 6 -49 c12 -88 17 -97 81 -129
55 -27 69 -30 160 -30 89 1 109 4 182 33 45 18 93 42 107 53 35 27 64 97 71
172 5 43 18 84 43 132 30 58 36 81 37 131 0 55 -4 67 -42 125 -90 137 -168
244 -183 253 -8 5 -46 42 -85 82 -73 77 -130 112 -199 125 -23 4 -61 12 -86
18 -74 17 -368 13 -415 -5z m440 -65 c5 -5 19 -9 32 -9 13 0 31 -4 41 -10 9
-5 37 -15 62 -21 33 -8 58 -25 97 -64 29 -30 62 -59 73 -65 27 -15 96 -122
116 -182 12 -36 22 -50 40 -54 17 -4 24 -13 24 -29 0 -12 7 -36 15 -51 8 -16
15 -53 15 -82 0 -48 -3 -56 -37 -88 -43 -38 -80 -52 -171 -61 -51 -5 -66 -3
-82 12 -19 17 -21 17 -52 -7 -18 -13 -60 -39 -92 -58 -57 -32 -64 -33 -148
-31 -143 3 -143 3 -33 105 52 48 95 94 95 103 0 13 -3 13 -26 -2 -31 -20 -54
-13 -54 15 0 26 -17 60 -30 60 -6 0 -10 -13 -10 -30 0 -38 -18 -39 -68 -5 -20
14 -40 25 -44 25 -16 0 -7 -28 21 -65 l29 -39 -106 -74 c-59 -40 -117 -75
-129 -79 -35 -8 -92 6 -114 28 -26 26 -26 105 1 139 47 60 10 68 -45 9 -38
-41 -38 -41 -94 -34 -31 4 -67 14 -81 23 -14 9 -36 19 -50 22 -24 5 -25 8 -22
78 4 75 -7 91 -34 55 -22 -31 -28 -4 -11 45 9 26 17 55 17 66 0 70 52 146 101
146 24 0 32 9 60 61 33 62 67 89 112 89 12 0 29 -6 36 -12 10 -11 21 -4 57 34
43 46 46 47 112 51 102 6 366 -4 377 -14z m425 -802 c0 -110 -140 -197 -318
-197 -100 0 -169 44 -160 102 2 18 14 27 53 39 28 9 66 26 85 37 19 11 51 23
70 28 32 6 209 30 253 33 14 1 17 -7 17 -42z"/>
<path d="M1681 1089 c-138 -27 -233 -157 -217 -296 12 -105 76 -187 175 -224
74 -28 189 -23 276 12 l60 24 3 118 3 117 -76 0 -75 0 0 -70 0 -69 -35 -7
c-102 -19 -177 73 -146 177 23 78 128 105 204 54 l37 -26 55 48 c51 45 53 49
37 66 -28 31 -94 64 -150 76 -60 12 -88 12 -151 0z"/>
<path d="M2062 898 c3 -183 4 -195 27 -235 44 -77 117 -113 227 -113 80 0 140
22 187 68 57 56 68 106 65 303 l-3 164 -81 3 -82 3 -4 -177 -3 -176 -28 -24
c-34 -29 -67 -31 -98 -5 -23 19 -24 25 -29 198 l-5 178 -88 3 -89 3 4 -193z"/>
<path d="M2657 1084 c-4 -4 -7 -124 -7 -266 l0 -258 90 0 90 0 -2 263 -3 262
-80 3 c-45 1 -84 0 -88 -4z"/>
</g>
</svg>
