<?xml version="1.0" standalone="no"?>
<!DOCTYPE svg PUBLIC "-//W3C//DTD SVG 20010904//EN"
 "http://www.w3.org/TR/2001/REC-SVG-20010904/DTD/svg10.dtd">
<svg version="1.0" xmlns="http://www.w3.org/2000/svg"
 width="1220.000000pt" height="1146.000000pt" viewBox="0 0 1220.000000 1146.000000"
 preserveAspectRatio="xMidYMid meet">

<g transform="translate(0.000000,1146.000000) scale(0.100000,-0.100000)"
fill="#000000" stroke="none">
<path d="M5760 11310 c-364 -27 -840 -100 -1144 -176 -221 -56 -469 -153 -629
-248 -93 -54 -177 -131 -177 -162 0 -30 71 -82 169 -125 53 -23 141 -64 196
-92 54 -27 189 -84 300 -127 240 -93 326 -133 425 -198 220 -144 416 -435 600
-887 167 -412 261 -739 295 -1033 33 -283 11 -487 -114 -1064 -74 -339 -76
-353 -101 -573 -25 -225 -25 -309 0 -411 67 -282 331 -735 519 -890 113 -95
199 -129 433 -173 213 -41 397 -55 708 -55 324 0 401 9 486 59 95 55 97 99 19
296 -91 226 -88 264 35 474 72 123 110 209 110 248 0 41 -21 96 -47 128 -15
17 -87 76 -159 130 -185 138 -232 199 -313 409 -60 152 -127 386 -181 626 -23
98 -61 265 -85 369 -79 338 -81 463 -9 807 104 496 275 975 442 1233 88 137
246 279 517 466 372 255 435 315 435 415 0 114 -84 161 -465 263 -499 133
-994 226 -1475 277 -175 18 -618 26 -790 14z"/>
<path d="M8798 10565 c-153 -26 -318 -94 -463 -190 -98 -65 -260 -217 -347
-324 -229 -283 -455 -737 -548 -1097 -94 -365 -80 -886 41 -1471 115 -555 340
-973 524 -973 74 0 132 55 238 222 146 233 258 397 308 452 143 159 588 431
932 571 167 68 349 119 505 142 307 45 1021 -1 1228 -78 79 -30 158 -86 282
-198 127 -115 153 -129 188 -106 35 23 51 53 68 126 47 203 22 455 -69 691
-75 193 -251 508 -413 736 -174 244 -378 474 -600 676 -135 123 -292 254 -342
285 -14 9 -68 46 -120 82 -266 185 -598 341 -882 413 -217 56 -373 67 -530 41z"/>
<path d="M3180 10534 c-176 -20 -279 -43 -424 -94 -237 -83 -505 -225 -698
-371 -276 -209 -900 -916 -1179 -1336 -168 -253 -253 -425 -343 -697 -91 -275
-283 -1108 -322 -1396 -67 -507 72 -1160 369 -1731 171 -328 448 -671 686
-849 236 -177 558 -285 1001 -336 187 -22 485 -15 625 16 311 67 635 225 778
380 109 117 168 240 271 565 61 190 67 219 77 339 5 72 14 158 20 191 15 83
63 169 124 220 27 23 93 79 145 123 52 45 176 143 275 219 209 160 359 305
433 418 190 289 381 790 461 1205 41 218 55 382 55 660 0 353 -32 589 -120
890 -228 786 -769 1286 -1634 1511 -200 52 -482 86 -600 73z"/>
<path d="M10048 7715 c-347 -49 -626 -159 -998 -392 -430 -270 -664 -541 -909
-1055 -151 -314 -218 -536 -228 -744 -6 -134 5 -208 39 -244 34 -37 94 -24
265 58 81 39 172 77 202 86 164 48 717 59 872 18 231 -62 481 -267 678 -557
203 -299 249 -463 303 -1080 29 -339 29 -376 -6 -442 -14 -29 -24 -53 -21 -53
3 0 22 10 43 23 20 13 74 42 118 65 111 56 330 182 434 250 210 136 415 313
515 442 179 234 282 556 430 1345 52 282 91 451 166 725 43 158 49 295 19 440
-44 219 -146 471 -254 634 -175 263 -428 396 -891 468 -171 26 -629 34 -777
13z"/>
<path d="M5225 6318 c-2 -7 -11 -38 -21 -68 -26 -85 -44 -114 -185 -311 -241
-337 -385 -508 -464 -555 -23 -13 -83 -33 -133 -44 -164 -35 -182 -61 -228
-339 -41 -250 -228 -844 -300 -956 -15 -22 -67 -79 -117 -127 -88 -85 -90 -88
-84 -125 7 -46 49 -85 140 -133 34 -18 143 -86 242 -150 212 -138 325 -203
417 -241 155 -64 363 -95 558 -84 146 9 220 24 417 84 395 122 478 113 813
-86 170 -101 235 -134 335 -167 156 -51 293 -77 435 -83 134 -5 136 -5 248 31
125 40 225 47 285 22 52 -21 117 -104 201 -257 78 -143 179 -296 410 -624 302
-430 455 -599 866 -960 206 -180 430 -357 585 -460 186 -124 445 -271 498
-283 61 -13 235 1 275 22 18 9 42 31 53 49 18 28 20 44 16 117 -7 107 -31 179
-174 510 -158 364 -232 571 -277 770 -48 211 -57 355 -66 1085 -10 733 -16
822 -71 1043 -130 524 -386 920 -684 1057 -134 62 -184 70 -445 70 -205 -1
-258 -4 -415 -28 -210 -33 -317 -66 -465 -144 -494 -261 -519 -270 -783 -260
-447 15 -1140 242 -1385 453 -103 88 -195 245 -281 479 -29 77 -67 178 -86
225 -37 94 -58 186 -75 334 -7 55 -16 110 -21 123 -9 25 -27 31 -34 11z"/>
<path d="M3438 2250 c-409 -48 -720 -324 -820 -726 -18 -73 -22 -119 -22 -249
0 -164 8 -225 46 -345 77 -242 260 -448 492 -556 212 -98 504 -119 731 -54 91
26 223 89 299 144 133 95 267 265 321 409 24 65 25 76 25 292 l0 225 -515 0
-515 0 0 -175 0 -175 295 0 c202 0 295 -3 295 -11 0 -28 -61 -129 -108 -181
-60 -64 -142 -110 -230 -129 -80 -16 -251 -6 -324 20 -174 61 -288 206 -319
403 -16 100 -6 257 21 338 55 166 188 287 350 321 70 15 231 6 290 -15 62 -23
139 -78 174 -126 l30 -40 263 0 263 0 -6 28 c-15 60 -59 158 -104 225 -181
277 -540 422 -932 377z"/>
<path d="M4760 1613 c0 -741 3 -774 91 -943 95 -184 240 -300 451 -361 106
-30 334 -38 448 -15 267 54 453 192 555 409 78 165 86 263 83 982 l-3 550
-237 3 -237 2 -3 -627 c-4 -696 -4 -686 -71 -775 -71 -92 -199 -134 -339 -110
-121 21 -194 79 -234 187 -18 46 -19 96 -24 685 l-5 635 -237 3 -238 2 0 -627z"/>
<path d="M6705 2228 c-3 -7 -4 -445 -3 -973 l3 -960 238 -3 237 -2 0 975 0
975 -235 0 c-179 0 -237 -3 -240 -12z"/>
</g>
</svg>
