<?xml version="1.0" standalone="no"?>
<!DOCTYPE svg PUBLIC "-//W3C//DTD SVG 20010904//EN"
 "http://www.w3.org/TR/2001/REC-SVG-20010904/DTD/svg10.dtd">
<svg version="1.0" xmlns="http://www.w3.org/2000/svg"
 width="256.000000pt" height="256.000000pt" viewBox="0 0 256.000000 256.000000"
 preserveAspectRatio="xMidYMid meet">

<g transform="translate(0.000000,256.000000) scale(0.100000,-0.100000)"
fill="#000000" stroke="none">
<path d="M1660 2388 c-25 -4 -46 -12 -48 -18 -2 -5 -15 -10 -28 -10 -13 0 -24
-4 -24 -9 0 -5 -15 -14 -32 -21 -42 -15 -66 -25 -101 -39 -15 -6 -32 -22 -39
-35 -6 -14 -28 -37 -50 -52 -21 -15 -41 -38 -45 -53 -3 -14 -11 -33 -18 -41
-27 -32 -38 -181 -16 -203 6 -6 11 -22 11 -35 0 -31 53 -84 75 -76 10 4 25 -2
40 -16 17 -16 35 -22 69 -22 32 0 46 -4 46 -13 0 -32 25 -65 56 -75 41 -14 42
-22 9 -44 -59 -39 -310 -273 -420 -392 -154 -167 -265 -306 -377 -474 -89
-132 -108 -155 -108 -128 -1 22 -98 208 -133 254 -50 65 -89 88 -138 80 -22
-4 -57 -15 -77 -25 -42 -22 -142 -99 -142 -110 0 -4 18 -17 39 -29 76 -43 147
-143 227 -323 47 -106 95 -223 118 -292 5 -15 14 -11 68 31 35 27 91 67 125
90 56 38 66 51 119 149 182 340 444 704 733 1018 133 145 139 150 192 163 30
6 67 12 82 12 25 0 27 -3 27 -37 0 -69 9 -83 69 -110 75 -35 151 -35 250 1 92
32 119 49 133 84 5 15 14 35 19 45 5 9 10 40 10 67 1 28 6 53 11 57 6 3 21 31
35 62 32 71 26 126 -17 181 -16 21 -30 41 -30 46 0 4 -19 32 -42 63 -24 31
-48 65 -53 76 -6 11 -23 26 -38 33 -15 7 -27 17 -27 21 0 4 -19 28 -42 53 -41
44 -109 78 -156 78 -10 0 -23 5 -28 10 -13 13 -272 19 -334 8z m261 -49 c31 1
60 -3 64 -9 3 -5 17 -10 30 -10 13 0 27 -4 30 -10 3 -5 21 -10 38 -10 23 0 44
-11 75 -38 23 -21 42 -43 42 -49 0 -6 11 -14 25 -17 14 -4 30 -17 35 -30 5
-13 14 -27 20 -31 12 -8 47 -81 52 -110 2 -12 12 -21 26 -23 19 -3 23 -8 18
-27 -4 -15 -1 -25 9 -29 21 -8 19 -136 -1 -136 -7 0 -17 -6 -21 -13 -13 -20
-61 -37 -126 -44 -50 -5 -62 -3 -72 11 -12 15 -15 15 -43 -9 -16 -14 -33 -25
-36 -25 -4 0 -25 -12 -47 -26 -33 -20 -48 -24 -73 -19 -17 4 -55 7 -83 6 -29
0 -53 4 -53 9 0 5 33 34 73 65 39 32 75 68 79 81 6 23 5 23 -15 9 -32 -23 -47
-18 -47 14 0 16 -7 34 -15 41 -13 11 -15 8 -15 -19 0 -38 -10 -39 -58 -6 -32
22 -38 23 -40 9 -2 -9 8 -28 23 -44 l26 -28 -96 -66 c-85 -60 -99 -67 -128
-61 -58 12 -77 31 -77 76 0 26 7 47 20 61 25 27 25 38 1 38 -12 0 -28 -13 -38
-31 -17 -30 -20 -31 -77 -27 -41 3 -61 9 -68 21 -5 9 -20 17 -34 17 -26 0 -26
1 -19 60 6 51 5 60 -9 60 -9 0 -16 -7 -16 -15 0 -8 -4 -15 -10 -15 -12 0 -13
37 -1 44 5 3 12 33 16 66 8 71 41 115 80 108 21 -4 27 2 45 46 21 52 51 76 96
76 12 0 25 -6 27 -12 4 -8 19 2 41 27 l36 40 108 5 c59 3 111 3 116 1 5 -2 35
-3 67 -2z m409 -657 c0 -31 -8 -47 -37 -79 -51 -55 -143 -81 -260 -75 -45 3
-95 47 -91 81 2 22 9 27 37 29 18 2 51 15 73 30 32 21 60 28 151 38 62 6 115
12 120 13 4 0 7 -16 7 -37z"/>
</g>
</svg>
