<?xml version="1.0" standalone="no"?>
<!DOCTYPE svg PUBLIC "-//W3C//DTD SVG 20010904//EN"
 "http://www.w3.org/TR/2001/REC-SVG-20010904/DTD/svg10.dtd">
<svg version="1.0" xmlns="http://www.w3.org/2000/svg"
 width="290.000000pt" height="228.000000pt" viewBox="0 0 290.000000 228.000000"
 preserveAspectRatio="xMidYMid meet">

<g transform="translate(0.000000,228.000000) scale(0.100000,-0.100000)"
fill="#000000" stroke="none">
<path d="M769 2124 c-111 -34 -204 -133 -234 -249 -11 -43 -15 -112 -15 -252
l0 -193 -75 0 c-90 0 -126 -15 -149 -64 -21 -45 -20 -74 4 -113 26 -44 50 -54
141 -60 l79 -6 0 -254 c0 -211 -3 -259 -16 -284 -16 -32 -66 -59 -110 -59 -97
0 -147 -129 -78 -201 35 -36 76 -44 150 -29 144 30 247 129 280 269 10 39 14
135 14 314 l0 257 78 0 c96 0 135 20 153 79 14 47 7 81 -25 118 -22 26 -31 28
-113 33 l-88 5 -2 190 c-3 205 0 222 49 258 22 17 49 22 139 26 109 6 111 6
140 39 23 26 29 42 29 78 0 39 -5 51 -34 80 l-34 34 -118 -1 c-73 0 -137 -6
-165 -15z"/>
<path d="M1360 1648 c-40 -27 -78 -89 -135 -218 -160 -363 -132 -770 77 -1116
54 -89 128 -110 192 -54 58 52 57 85 -7 209 -91 176 -127 313 -127 481 0 167
44 330 130 482 67 117 64 166 -9 215 -43 29 -79 29 -121 1z"/>
<path d="M2333 1655 c-38 -16 -73 -68 -73 -108 0 -16 22 -70 49 -120 94 -174
139 -361 128 -531 -9 -136 -40 -244 -113 -393 -37 -77 -64 -146 -64 -164 0
-23 10 -42 39 -70 32 -32 46 -39 78 -39 54 0 83 25 135 113 172 294 209 675
96 995 -62 178 -131 293 -189 316 -47 19 -45 19 -86 1z"/>
<path d="M1632 1267 c-46 -26 -71 -92 -52 -142 6 -15 42 -60 81 -100 l71 -73
-75 -74 c-57 -56 -76 -82 -81 -110 -14 -79 39 -138 125 -138 38 0 47 6 120 77
l79 76 80 -76 c77 -75 81 -77 129 -77 84 0 137 67 116 147 -3 14 -37 59 -76
98 -38 39 -69 76 -69 81 0 5 31 41 70 79 94 93 105 152 40 216 -22 23 -38 29
-70 29 -56 0 -88 -19 -152 -90 -30 -33 -59 -60 -63 -60 -5 0 -43 34 -86 75
-72 70 -79 75 -120 75 -24 -1 -54 -6 -67 -13z"/>
</g>
</svg>
