<?xml version="1.0" standalone="no"?>
<!DOCTYPE svg PUBLIC "-//W3C//DTD SVG 20010904//EN"
 "http://www.w3.org/TR/2001/REC-SVG-20010904/DTD/svg10.dtd">
<svg version="1.0" xmlns="http://www.w3.org/2000/svg"
 width="512.000000pt" height="512.000000pt" viewBox="0 0 512.000000 512.000000"
 preserveAspectRatio="xMidYMid meet">

<g transform="translate(0.000000,512.000000) scale(0.100000,-0.100000)"
fill="#000000" stroke="none">
<path d="M25 5095 c-14 -13 -25 -36 -25 -50 0 -14 11 -37 25 -50 23 -24 30
-25 150 -25 l125 0 0 -120 0 -120 -50 0 c-41 0 -56 -5 -75 -25 -14 -13 -25
-36 -25 -50 0 -14 11 -37 25 -50 19 -20 34 -25 75 -25 l50 0 0 -120 0 -120
-129 0 c-128 0 -130 0 -150 -26 -28 -35 -26 -69 4 -99 23 -24 30 -25 150 -25
l125 0 0 -120 0 -120 -54 0 c-47 0 -57 -4 -75 -26 -26 -33 -27 -65 -3 -94 14
-18 32 -24 75 -28 l57 -4 0 -119 0 -119 -129 0 c-128 0 -130 0 -150 -26 -34
-43 -26 -86 20 -109 20 -11 62 -15 144 -15 l115 0 0 -120 0 -120 -53 0 c-43 0
-58 -5 -75 -23 -56 -59 -5 -127 94 -127 l34 0 0 -120 0 -120 -130 0 c-120 0
-131 -2 -150 -22 -23 -25 -26 -65 -6 -90 22 -29 63 -38 177 -38 l109 0 0 -115
0 -115 -34 0 c-46 0 -94 -18 -106 -40 -32 -59 9 -110 88 -110 l52 0 0 -120 0
-120 -115 0 c-82 0 -124 -4 -144 -15 -46 -23 -54 -66 -20 -109 20 -26 22 -26
150 -26 l129 0 0 -119 0 -119 -57 -4 c-43 -4 -61 -10 -75 -28 -24 -29 -23 -61
3 -94 18 -22 28 -26 75 -26 l54 0 0 -120 0 -120 -125 0 c-120 0 -127 -1 -150
-25 -30 -30 -32 -64 -4 -99 20 -26 22 -26 150 -26 l129 0 0 -120 0 -120 -50 0
c-41 0 -56 -5 -75 -25 -32 -31 -32 -69 0 -100 19 -20 34 -25 75 -25 l50 0 0
-120 0 -120 -125 0 c-120 0 -127 -1 -150 -25 -32 -31 -32 -69 0 -100 23 -24
30 -25 150 -25 l125 0 0 -125 c0 -120 1 -127 25 -150 31 -32 69 -32 100 0 24
23 25 30 25 150 l0 125 315 0 315 0 0 -129 c0 -128 0 -130 26 -150 35 -28 69
-26 99 4 25 24 25 27 25 200 0 173 0 176 -25 200 l-24 25 -366 0 -365 0 0
2310 0 2311 -25 24 c-24 25 -27 25 -200 25 -173 0 -176 0 -200 -25z"/>
<path d="M4609 4919 c-123 -18 -208 -115 -217 -247 -16 -240 277 -377 449
-210 56 54 80 113 80 192 0 173 -139 291 -312 265z m128 -181 c76 -71 22 -198
-83 -198 -98 0 -151 114 -88 189 45 54 119 58 171 9z"/>
<path d="M3807 4136 c-74 -21 -127 -64 -166 -137 -31 -59 -33 -69 -29 -136 4
-58 11 -82 34 -120 57 -92 148 -139 254 -131 143 11 244 122 244 268 -1 175
-169 303 -337 256z m141 -162 c37 -24 56 -80 43 -125 -41 -135 -231 -107 -231
34 0 89 110 142 188 91z"/>
<path d="M4593 3751 c-48 -13 -120 -58 -147 -94 -85 -111 -72 -277 28 -364 64
-57 93 -68 181 -68 96 0 142 21 202 89 113 129 74 334 -78 411 -52 27 -136 39
-186 26z m110 -155 c42 -17 68 -57 69 -105 0 -48 -15 -77 -55 -101 -79 -49
-177 3 -177 93 0 51 22 91 62 110 41 20 59 21 101 3z"/>
<path d="M3799 3356 c-197 -70 -254 -302 -109 -447 109 -109 280 -104 384 11
52 57 69 103 70 180 0 48 -6 78 -23 112 -57 119 -206 186 -322 144z m142 -159
c48 -32 67 -89 46 -139 -29 -70 -112 -98 -171 -59 -78 52 -73 165 8 205 44 22
78 20 117 -7z"/>
<path d="M2627 2966 c-59 -22 -105 -57 -138 -105 -92 -139 -46 -314 105 -394
58 -31 174 -31 232 0 53 28 99 74 127 127 17 32 22 58 22 116 0 84 -20 134
-76 189 -68 69 -188 98 -272 67z m167 -175 c26 -27 31 -39 31 -81 0 -43 -5
-54 -33 -82 -28 -28 -39 -33 -82 -33 -43 0 -54 5 -82 33 -28 28 -33 39 -33 81
0 52 25 92 70 112 37 16 96 3 129 -30z"/>
<path d="M1860 2581 c-112 -36 -200 -151 -200 -261 0 -107 89 -225 194 -255
75 -22 145 -14 213 25 182 104 174 375 -13 470 -52 26 -148 36 -194 21z m130
-157 c67 -40 80 -123 27 -180 -60 -66 -159 -50 -193 31 -19 47 -18 66 9 106
39 58 102 75 157 43z"/>
<path d="M3404 2578 c-55 -18 -126 -80 -153 -132 -109 -211 86 -448 314 -381
105 30 195 148 195 255 0 90 -69 199 -155 242 -46 24 -153 33 -201 16z m168
-177 c15 -17 30 -42 34 -56 10 -39 -17 -96 -56 -123 -99 -67 -225 54 -164 157
41 69 134 80 186 22z"/>
<path d="M1080 2191 c-73 -23 -147 -89 -178 -160 -25 -58 -20 -156 11 -217 50
-98 130 -147 242 -148 59 0 78 4 123 29 167 91 192 318 50 439 -66 57 -170 80
-248 57z m130 -156 c83 -43 78 -170 -8 -211 -90 -42 -189 42 -162 138 22 76
100 109 170 73z"/>
<path d="M4567 2186 c-109 -41 -177 -138 -177 -257 0 -108 50 -187 154 -241
62 -33 164 -30 232 5 119 61 173 194 133 325 -16 54 -78 126 -133 154 -52 27
-156 34 -209 14z m154 -159 c119 -80 14 -263 -115 -202 -43 21 -66 59 -66 110
0 47 14 71 53 95 42 26 86 25 128 -3z"/>
<path d="M1843 1797 c-135 -52 -208 -195 -169 -329 32 -111 136 -191 251 -192
79 0 129 18 183 67 56 52 83 106 89 177 10 105 -41 202 -134 257 -53 31 -166
41 -220 20z m147 -152 c62 -32 78 -129 29 -181 -77 -82 -204 -30 -204 84 0 38
5 48 37 78 43 38 88 45 138 19z"/>
<path d="M1065 1408 c-122 -43 -201 -179 -175 -304 39 -187 254 -280 409 -176
178 119 156 383 -39 471 -50 23 -144 27 -195 9z m166 -166 c43 -39 52 -113 18
-156 -48 -61 -126 -68 -178 -15 -35 35 -45 80 -27 123 33 78 126 102 187 48z"/>
<path d="M2617 1406 c-178 -66 -233 -286 -106 -429 107 -122 292 -122 399 1
73 82 88 201 39 296 -27 54 -55 82 -108 114 -53 31 -165 40 -224 18z m160
-156 c36 -21 60 -82 50 -122 -24 -93 -149 -124 -207 -51 -63 81 -11 193 90
193 19 0 49 -9 67 -20z"/>
<path d="M1406 429 c-19 -15 -26 -30 -26 -54 0 -24 7 -39 26 -54 25 -20 39
-21 240 -21 l214 0 0 -129 c0 -128 0 -130 26 -150 43 -34 86 -26 109 20 11 20
15 62 15 144 l0 115 310 0 310 0 0 -103 c0 -150 19 -196 80 -196 61 0 80 46
80 196 l0 103 310 0 310 0 0 -115 c0 -82 4 -124 15 -144 23 -46 66 -54 109
-20 26 20 26 22 26 150 l0 129 315 0 315 0 0 -125 c0 -120 1 -127 25 -150 30
-30 64 -32 99 -4 26 20 26 22 26 150 l0 129 315 0 315 0 0 -125 c0 -120 1
-127 25 -150 13 -14 36 -25 50 -25 14 0 37 11 50 25 25 24 25 27 25 200 0 173
0 176 -25 200 l-24 25 -1819 0 -1819 0 -27 -21z"/>
</g>
</svg>
